HIERARCHY
ROOT Hips
{
	OFFSET 0.00000 0.00000 0.00000
	CHANNELS 6 Xposition Yposition Zposition Yrotation Zrotation Xrotation 
	JOINT Lumbar
	{
		OFFSET 0 0 0
		CHANNELS 3 Zrotation Xrotation Yrotation
		JOINT Neck
		{
			OFFSET 0.00 0.2701 0.00
			CHANNELS 3 Zrotation Xrotation Yrotation
			End Site
			{
				OFFSET 0.00 0.1379 0.00
			}
		}
		JOINT RightShoulder
		{
			OFFSET 0.0119 0.2289 0.1181
			CHANNELS 3 Zrotation Xrotation Yrotation
			JOINT RightElbow
			{
				OFFSET 0.00 -0.1475 0.00
				CHANNELS 2 Zrotation Yrotation
				JOINT RightWrist
				{
					OFFSET 0.00 -0.1605 0.00
					CHANNELS 2 Zrotation Xrotation
					End Site
					{
						OFFSET 0.0040 -0.1068 0.0006
					}
				}
			}
		}
		JOINT LeftShoulder
		{
			OFFSET 0.0119 0.2289 -0.1181
			CHANNELS 3 Zrotation Xrotation Yrotation
			JOINT LeftElbow
			{
				OFFSET 0.00 -0.1475 0.00
				CHANNELS 2 Zrotation Yrotation
				JOINT LeftWrist
				{
					OFFSET 0.00 -0.1605 0.00
					CHANNELS 2 Zrotation Xrotation
					End Site
					{
						OFFSET 0.0040 -0.1068 -0.0006
					}
				}
			}
		}
	}
	JOINT RightHip
	{
		OFFSET 0.0316 -0.0424 0.0458
		CHANNELS 3 Zrotation Xrotation Yrotation
		JOINT RightKnee
		{
			OFFSET 0.00 -0.2438 0.00
			CHANNELS 1 Zrotation
			JOINT RightAnkle
			{
				OFFSET 0.00 -0.2449 0.00
				CHANNELS 3 Zrotation Xrotation Yrotation
				End Site
				{
					OFFSET 0.1237 -0.0542 0.0051
				}
			}
		}
	}
	JOINT LeftHip
	{
		OFFSET 0.0316 -0.0424 -0.0458
		CHANNELS 3 Zrotation Xrotation Yrotation
		JOINT LeftKnee
		{
			OFFSET 0.00 -0.2438 0.00
			CHANNELS 1 Zrotation
			JOINT LeftAnkle
			{
				OFFSET 0.00 -0.2449 0.00
				CHANNELS 3 Zrotation Xrotation Yrotation
				End Site
				{
					OFFSET 0.1237 -0.0542 -0.0051
				}
			}
		}
	}
}
MOTION
Frames: 14
Frame Time: 0.02
0.00093 -0.00033 -6e-05 -173.50694 -40.91244 -0.88567 45.10937 0.91497 -4.65148 15.12429 -1.26876 -0.36254 7.54896 -11.30066 27.17917 34.38641 89.32586 7.21224 -0.97643 14.51866 12.99145 -28.13501 40.52658 -88.36827 3.75916 -0.26663 44.36005 -0.31992 -7.06179 -19.81937 -6.73969 -4.13651 -2.81216 49.03738 2.75884 1.26211 -25.27136 -6.76927 2.52812 1.99066
0.00044 -0.00037 0.00012 -173.47314 -40.99463 -0.91252 45.23729 0.93609 -4.75562 14.55384 -1.23904 -0.36328 4.95643 -11.58219 24.39024 33.84529 89.66513 7.14566 -0.80083 11.01829 13.22739 -26.83012 40.49256 -88.76175 3.79733 -0.41325 44.37067 -0.31751 -7.07046 -19.78769 -6.73592 -4.1228 -2.80441 49.06776 2.77857 1.30177 -25.27237 -6.7679 2.53564 1.99004
-5e-05 -0.0004 0.00031 -173.4396 -41.07667 -0.93933 45.36486 0.9572 -4.85929 13.98454 -1.20941 -0.36402 2.36919 -11.86355 21.60894 33.3062 90.00448 7.08002 -0.62574 7.52546 13.46295 -25.52812 40.45884 -89.15562 3.83652 -0.55938 44.3814 -0.3151 -7.07906 -19.75604 -6.73218 -4.10912 -2.79666 49.09816 2.79839 1.34204 -25.27335 -6.76657 2.54307 1.98938
-0.00054 -0.00043 0.00049 -173.40593 -41.15862 -0.9661 45.49239 0.97826 -4.96308 13.41574 -1.17978 -0.36475 -0.21585 -12.14433 18.82842 32.76681 90.34293 7.01379 -0.45068 4.0353 13.69823 -24.2271 40.42496 -89.54821 3.8748 -0.70554 44.392 -0.31269 -7.08768 -19.72444 -6.72842 -4.09545 -2.78893 49.12845 2.81809 1.38173 -25.27435 -6.76521 2.55055 1.98875
-0.00103 -0.00047 0.00068 -173.37194 -41.24068 -0.99291 45.62026 0.99931 -5.06739 12.84605 -1.15005 -0.36549 -2.805 -12.425 16.04071 32.22524 90.68077 6.94626 -0.27512 0.53892 13.93373 -22.92355 40.3907 -89.93965 3.91154 -0.85222 44.40245 -0.31029 -7.0964 -19.69284 -6.72463 -4.08178 -2.78118 49.15871 2.8376 1.42045 -25.27539 -6.7638 2.55815 1.98818
-0.00152 -0.0005 0.00086 -173.33936 -41.32269 -1.01969 45.74718 1.02056 -5.1697 12.27761 -1.12066 -0.36623 -5.38797 -12.70778 13.27307 31.69138 91.02318 6.88455 -0.10103 -2.94612 14.16936 -21.62484 40.35812 -90.33847 3.95579 -0.99715 44.41377 -0.30785 -7.10478 -19.66111 -6.72101 -4.06805 -2.77343 49.18943 2.85807 1.4639 -25.27622 -6.76262 2.56525 1.98733
-0.00202 -0.00053 0.00105 -173.30395 -41.40469 -1.0465 45.87587 1.04137 -5.27595 11.70725 -1.0906 -0.36696 -7.98089 -12.98603 10.46805 31.14268 91.35632 6.81141 0.07583 -6.45035 14.40456 -20.31807 40.32224 -90.72248 3.9852 -1.14543 44.42327 -0.30549 -7.11377 -19.62964 -6.71704 -4.05446 -2.76571 49.21912 2.87664 1.49804 -25.27747 -6.76099 2.57331 1.98702
-0.00251 -0.00057 0.00123 -173.27121 -41.48673 -1.07329 46.00293 1.06261 -5.3785 11.13872 -1.06118 -0.3677 -10.56398 -13.26843 7.6976 30.6075 91.69748 6.74844 0.25013 -9.93649 14.64003 -19.01829 40.28932 -91.11928 4.0277 -1.29065 44.43457 -0.30308 -7.1223 -19.59798 -6.71339 -4.04074 -2.75795 49.24987 2.89687 1.54031 -25.27836 -6.75977 2.58054 1.98625
-0.00298 -0.0006 0.00141 -173.24151 -41.56875 -1.10005 46.12806 1.08429 -5.47679 10.57183 -1.03246 -0.36844 -13.13921 -13.55624 4.96766 30.08933 92.05089 6.69946 0.42138 -13.40412 14.8765 -17.72805 40.26035 -91.53561 4.08877 -1.43209 44.44759 -0.30052 -7.12985 -19.56589 -6.71015 -4.02687 -2.75016 49.2815 2.91955 1.59447 -25.27871 -6.75907 2.58653 1.98479
-0.00354 -0.00065 0.00161 -173.19367 -41.65068 -1.12697 46.26447 1.1032 -5.60042 9.99369 -0.99946 -0.36916 -15.77227 -13.81397 1.99929 29.47476 92.34119 6.57467 0.61045 -16.98925 15.1092 -16.38584 40.20963 -91.85134 4.05075 -1.59514 44.44932 -0.29853 -7.1418 -19.53569 -6.7046 -4.01387 -2.74261 49.30684 2.92941 1.58609 -25.28186 -6.75544 2.59898 1.9869
-0.0039 -0.00065 0.00176 -173.18451 -41.73293 -1.15352 46.37695 1.12807 -5.67006 9.44053 -0.97566 -0.36993 -18.27478 -14.13439 -0.4623 29.06264 92.7598 6.60677 0.76172 -20.31882 15.34853 -15.15164 40.20416 -92.37157 4.21669 -1.71271 44.47575 -0.29553 -7.14527 -19.50185 -6.7039 -3.99903 -2.73453 49.34622 2.96545 1.70585 -25.27928 -6.75797 2.59823 1.98176
-0.00375 -0.00051 0.00176 -173.27907 -41.81475 -1.1794 46.42407 1.16842 -5.59449 8.94695 -0.97597 -0.3708 -20.485 -14.63517 -1.55096 29.21926 93.57363 7.09863 0.80994 -23.00215 15.61852 -14.23203 40.32959 -93.5243 4.99074 -1.70336 44.56337 -0.28827 -7.11839 -19.45496 -6.71688 -3.97916 -2.72528 49.41812 3.0813 2.21277 -25.25936 -6.77783 2.55735 1.95398
-0.00339 -0.00033 0.0017 -173.41281 -41.89704 -1.20482 46.44689 1.21485 -5.46434 8.48073 -0.98575 -0.37175 -22.55043 -15.19724 -2.12731 29.57673 94.50795 7.74227 0.8201 -25.41653 15.89369 -13.41925 40.49919 -94.87018 5.96093 -1.64888 44.67699 -0.28026 -7.08417 -19.40498 -6.73466 -3.95745 -2.71546 49.50523 3.22204 2.84214 -25.23397 -6.80381 2.50391 1.9194
-0.0031 -0.00017 0.00167 -173.53037 -41.98007 -1.23025 46.48095 1.25915 -5.35701 8.007 -0.99188 -0.37266 -24.641 -15.72598 -2.92681 29.83366 95.35946 8.29787 0.84721 -27.9209 16.15726 -12.54341 40.64419 -96.07982 6.80939 -1.61626 44.78306 -0.27361 -7.0581 -19.35841 -6.75 -3.93653 -2.7057 49.58931 3.34609 3.39186 -25.21212 -6.82674 2.45884 1.88978
